<svg width="23" height="23" viewBox="0 0 23 23" fill="none" xmlns="http://www.w3.org/2000/svg">
<path d="M18.988 1.01215H4.01196C2.35511 1.01215 1.01196 2.35529 1.01196 4.01215V18.9882C1.01196 20.645 2.35511 21.9882 4.01197 21.9882H18.988C20.6448 21.9882 21.988 20.645 21.988 18.9882V4.01215C21.988 2.35529 20.6448 1.01215 18.988 1.01215Z" fill="#1F0040"/>
<path d="M6.46775 13.0504L5.63726 15.881C5.62379 15.9785 5.58271 16.0112 5.50117 16.0112H4.11282C4.01759 16.0112 3.99033 15.9624 4.01759 15.8484C4.75267 13.3596 5.99128 9.21127 6.86245 6.39695C6.90313 6.23433 6.94403 6.07153 6.97128 5.50217C6.97128 5.43726 7.01219 5.4046 7.05287 5.4046H8.93133C8.99949 5.4046 9.01291 5.42095 9.04021 5.486C10.0477 8.8208 11.15 12.4973 12.1845 15.8647C12.2118 15.9624 12.1845 16.0112 12.1029 16.0112H10.5785C10.5103 16.0112 10.483 15.9785 10.4558 15.9135L9.58465 13.0504H6.46775V13.0504ZM9.2172 11.4561C8.94503 10.3661 8.2781 8.17014 8.00584 7.03135H7.99223C7.78817 8.10509 7.2299 9.94324 6.82159 11.4561H9.2172Z" fill="#D291FF"/>
<path d="M14.2881 12.4383C14.3159 13.6548 14.9681 14.5194 16.3697 14.5194C16.8832 14.5194 17.5077 14.4233 18.1044 14.1192C18.146 14.1032 18.1877 14.1192 18.1877 14.1992V15.4799C18.1877 15.592 18.1598 15.6238 18.1044 15.6561C17.5632 15.9761 16.9111 16.0883 16.0228 16.1042C13.4972 16.1042 12.5813 14.1192 12.5813 12.1021C12.5813 9.81279 13.761 8.0036 15.8424 8.0036C17.8824 8.0036 18.7012 9.79666 18.7012 11.2856C18.7012 11.9738 18.6317 12.2941 18.5763 12.3423C18.4098 12.4223 17.8825 12.4383 17.1192 12.4383H14.2881V12.4383ZM16.5085 11.2056C17.022 11.2056 17.1053 11.1415 17.1192 11.0774C17.1192 11.0455 17.1192 10.9655 17.1192 10.9014C17.1192 10.4212 16.8415 9.38051 15.773 9.38051C14.871 9.38051 14.399 10.181 14.2881 11.2056H16.5085Z" fill="#D291FF"/>
</svg>
