<svg width="23" height="23" viewBox="0 0 23 23" fill="none" xmlns="http://www.w3.org/2000/svg">
<path d="M19.6472 0H3.35277C1.50109 0 0 1.50109 0 3.35277V19.6472C0 21.4989 1.50109 23 3.35277 23H19.6472C21.4989 23 23 21.4989 23 19.6472V3.35277C23 1.50109 21.4989 0 19.6472 0Z" fill="#2D2D2D"/>
<path d="M8.63322 20.0998C9.00967 20.0998 9.38243 20.0257 9.73023 19.8816C10.078 19.7375 10.394 19.5264 10.6602 19.2602C10.9264 18.994 11.1376 18.678 11.2816 18.3302C11.4257 17.9824 11.4998 17.6096 11.4998 17.2332V14.3666H8.63322C7.87295 14.3666 7.14381 14.6686 6.60622 15.2062C6.06862 15.7438 5.7666 16.4729 5.7666 17.2332C5.7666 17.9935 6.06862 18.7226 6.60622 19.2602C7.14381 19.7978 7.87295 20.0998 8.63322 20.0998V20.0998Z" fill="#0ACF83"/>
<path d="M5.7666 11.5C5.7666 10.7398 6.06862 10.0106 6.60622 9.47304C7.14381 8.93544 7.87295 8.63342 8.63322 8.63342H11.4998V14.3667H8.63322C7.87295 14.3667 7.14381 14.0646 6.60622 13.527C6.06862 12.9894 5.7666 12.2603 5.7666 11.5Z" fill="#A259FF"/>
<path d="M5.7666 5.76676C5.7666 5.00649 6.06862 4.27735 6.60622 3.73976C7.14381 3.20216 7.87295 2.90015 8.63322 2.90015H11.4998V8.63338H8.63322C7.87295 8.63338 7.14381 8.33136 6.60622 7.79377C6.06862 7.25617 5.7666 6.52704 5.7666 5.76676V5.76676Z" fill="#F24E1E"/>
<path d="M11.5002 2.91687H14.3669C15.1271 2.91687 15.8563 3.21889 16.3939 3.75648C16.9315 4.29408 17.2335 5.02321 17.2335 5.78349C17.2335 6.54376 16.9315 7.2729 16.3939 7.81049C15.8563 8.34809 15.1271 8.65011 14.3669 8.65011H11.5002V2.91687Z" fill="#FF7262"/>
<path d="M17.2335 11.5C17.2335 12.067 17.0654 12.6212 16.7504 13.0926C16.4354 13.5641 15.9877 13.9315 15.4639 14.1485C14.9401 14.3654 14.3637 14.4222 13.8076 14.3116C13.2515 14.201 12.7408 13.9279 12.3399 13.527C11.939 13.1261 11.6659 12.6154 11.5553 12.0593C11.4447 11.5032 11.5015 10.9268 11.7185 10.403C11.9354 9.87923 12.3028 9.43152 12.7743 9.11654C13.2457 8.80155 13.7999 8.63342 14.3669 8.63342C15.1271 8.63342 15.8563 8.93544 16.3939 9.47304C16.9315 10.0106 17.2335 10.7398 17.2335 11.5Z" fill="#1ABCFE"/>
</svg>
