<svg width="23" height="23" viewBox="0 0 23 23" fill="none" xmlns="http://www.w3.org/2000/svg">
<path d="M19.6162 1.3775H3.37744C2.27287 1.3775 1.37744 2.27293 1.37744 3.3775V19.6163C1.37744 20.7209 2.27287 21.6163 3.37744 21.6163H19.6162C20.7208 21.6163 21.6162 20.7209 21.6162 19.6163V3.3775C21.6162 2.27293 20.7208 1.3775 19.6162 1.3775Z" fill="#271300"/>
<path d="M16.6928 16.1658H15.3811C15.2373 16.1658 15.1235 16.052 15.1235 15.9083V8.39732C15.1235 8.25357 15.2373 8.13977 15.3811 8.13977H16.6928C16.8366 8.13977 16.9504 8.25357 16.9504 8.39732V15.9083C16.9504 16.046 16.8366 16.1658 16.6928 16.1658Z" fill="#FD7B02"/>
<path d="M16.0403 7.19339C16.6291 7.19339 17.1064 6.71606 17.1064 6.12724C17.1064 5.53843 16.6291 5.0611 16.0403 5.0611C15.4515 5.0611 14.9741 5.53843 14.9741 6.12724C14.9741 6.71606 15.4515 7.19339 16.0403 7.19339Z" fill="#FD7B02"/>
<path d="M6.10939 16.166H6.7922C7.01381 16.166 7.20548 16.0162 7.26538 15.8066L7.88829 13.5425C7.94819 13.3329 8.13986 13.1831 8.36147 13.1831H10.5656C10.7753 13.1831 10.9669 13.3209 11.0328 13.5186L11.7875 15.8305C11.8534 16.0342 12.0391 16.166 12.2547 16.166H13.2011C13.5305 16.166 13.7641 15.8485 13.6682 15.5371L10.7094 5.68419C10.6495 5.47455 10.4578 5.33679 10.2422 5.33679H8.8047C8.58308 5.33679 8.39142 5.48653 8.33152 5.69617L5.6422 15.549C5.55235 15.8545 5.78595 16.166 6.10939 16.166Z" fill="#FD7B02"/>
<path d="M9.48166 7.36719L8.42749 11.518H10.6436L9.48166 7.36719Z" fill="#271300"/>
</svg>
