<svg width="23" height="23" viewBox="0 0 23 23" fill="none" xmlns="http://www.w3.org/2000/svg">
<path d="M18.9879 1.01208H4.01196C2.35511 1.01208 1.01196 2.35523 1.01196 4.01208V18.988C1.01196 20.6449 2.35511 21.988 4.01196 21.988H18.9879C20.6448 21.988 21.9879 20.6449 21.9879 18.988V4.01209C21.9879 2.35523 20.6448 1.01208 18.9879 1.01208Z" fill="#26000D"/>
<path d="M8.19275 6.15875H6.45776V16.6983H8.19275V6.15875Z" fill="#FF3B93"/>
<path d="M14.7756 6.15881V8.85352C14.7756 8.85352 14.4649 8.85352 14.2578 8.85352C12.4916 8.85352 10.3564 9.99249 10.3564 12.9017C10.3564 15.1506 11.4962 16.8409 13.9232 16.8409C15.7103 16.8409 16.5521 16.2228 16.5521 16.2228V6.15881H14.7756ZM14.7736 15.2931C14.7736 15.2931 14.5691 15.3831 14.0866 15.3831C13.6037 15.3831 12.123 15.1705 12.123 12.8224C12.123 10.4744 13.8247 10.2862 14.2337 10.2862C14.6427 10.2862 14.7736 10.4008 14.7736 10.4008V15.2931H14.7736Z" fill="#FF3B93"/>
</svg>
