<svg width="23" height="23" viewBox="0 0 23 23" fill="none" xmlns="http://www.w3.org/2000/svg">
<path d="M18.9877 1.01221H4.01172C2.35486 1.01221 1.01172 2.35536 1.01172 4.01221V18.9882C1.01172 20.6451 2.35487 21.9882 4.01172 21.9882H18.9878C20.6446 21.9882 21.9878 20.6451 21.9878 18.9882V4.01221C21.9878 2.35535 20.6446 1.01221 18.9877 1.01221Z" fill="#242238"/>
<path d="M5.59404 5.5562C5.59404 5.47691 5.60764 5.44543 5.67562 5.44543C6.19276 5.42948 7.21371 5.41376 8.24804 5.41376C10.9155 5.41376 11.933 6.96581 11.9466 8.80153C11.9466 11.3173 10.0716 12.2712 8.07105 12.2712C7.68999 12.2712 7.32254 12.2712 7.22713 12.2712V15.8658C7.22713 15.9607 7.20006 15.9925 7.1319 15.9925H5.68922C5.62125 15.9925 5.59399 15.9608 5.59399 15.8817V5.5562H5.59404ZM7.22718 10.7364C7.33619 10.7522 7.54026 10.7679 8.112 10.7679C9.187 10.7679 10.2214 10.4616 10.2214 8.87915C10.2214 7.61323 9.52738 6.96302 8.24808 6.96302C7.71729 6.96302 7.33619 6.97879 7.22718 6.99473V10.7364V10.7364Z" fill="#4FC7EC"/>
<path d="M15.3435 9.55346C14.6881 9.55346 14.5144 9.96334 14.5144 10.264C14.5144 10.6439 14.6881 10.8495 15.6911 11.3243C17.0685 11.9888 17.657 12.5744 17.657 13.7136C17.657 15.296 16.6273 16.1963 15.1561 16.1963C14.4474 16.1963 13.5531 16.1288 12.9914 15.7174C12.9379 15.6857 12.9111 15.6383 12.9111 15.559V14.1033C12.9111 14.0242 12.9647 13.9925 13.0048 14.0242C13.7002 14.5464 14.4757 14.6947 15.1711 14.6947C15.7863 14.6947 16.0002 14.2847 16.0002 13.9366C16.0002 13.5252 15.8516 13.2878 14.8887 12.8289C13.5113 12.1643 12.9378 11.5932 12.9378 10.4381C12.9378 9.15628 13.899 8.09753 15.4771 8.09753C16.2927 8.09753 16.8677 8.11938 17.2423 8.37241C17.309 8.43575 17.3225 8.48318 17.3225 8.57819V9.87573C17.3225 9.97055 17.269 10.0182 17.2021 9.97055C16.7207 9.65423 16.0388 9.55346 15.3435 9.55346Z" fill="#4FC7EC"/>
</svg>
