<svg width="23" height="23" viewBox="0 0 23 23" fill="none" xmlns="http://www.w3.org/2000/svg">
<path d="M18.9878 1.01202H4.01172C2.35486 1.01202 1.01172 2.35517 1.01172 4.01202V18.9881C1.01172 20.6449 2.35486 21.9881 4.01172 21.9881H18.9878C20.6446 21.9881 21.9878 20.6449 21.9878 18.9881V4.01202C21.9878 2.35517 20.6446 1.01202 18.9878 1.01202Z" fill="#2E001F"/>
<path d="M11.9402 6.15729H10.1436L8.21496 10.191L6.26045 6.15729H4.40964L7.02895 11.3949L4.31616 16.758H6.14508L8.10824 12.6479L10.0942 16.758H12.0738L9.27771 11.3319L11.9402 6.15729ZM16.907 6.15729V8.85278C16.907 8.85278 16.5962 8.85278 16.3893 8.85278C14.6225 8.85278 12.4867 9.99212 12.4867 12.9023C12.4867 15.152 13.6265 16.8429 16.0544 16.8429C17.8421 16.8429 18.6844 16.2245 18.6844 16.2245V6.15729H16.907ZM16.9053 15.2944C16.9053 15.2944 16.7006 15.3845 16.2178 15.3845C15.735 15.3845 14.2537 15.1717 14.2537 12.8229C14.2537 10.4743 15.9559 10.286 16.365 10.286C16.7743 10.286 16.9052 10.4006 16.9052 10.4006V15.2944H16.9053Z" fill="#FFD9F2"/>
</svg>
